# xmcd
#
# Track frame offsets:
#	150
#	7051
#	26306
#	58014
#	85098
#	103091
#	157068
#	192738
#	212860
#	241397
#	255051
#	284305
#	309594
#
# Disc length: 4433 seconds
#
# Revision: 0
# Processed by: cddbd v1.5.2PL0 Copyright (c) Steve Scherf et al.
# Submitted via: EZCDAudioConverter 2.1.7.1
#
DISCID=b0114f0d
DTITLE=V/A - Spirit Of Malombo 2/2
DYEAR=1900
DGENRE=
TTITLE0=Jabula  - Sorrows [Extract]
TTITLE1=Jabula - Let Us Be Free
TTITLE2=Jabula - Thunder Into Our Hearts
TTITLE3=Jabula  - Journey To Africa 
TTITLE4=Jabula  - Mathome
TTITLE5=Jabula - All For One
TTITLE6=Julian Bahula's Jazz Afrika  - Woza Cindi
TTITLE7=Jabula - Siakala 
TTITLE8=Julian Bahula's Jazz Afrika  - Tlhompho
TTITLE9=Jabula - Jabula Happiness
TTITLE10=Jabula - Ithumeleng Ba Mamelodi
TTITLE11=Jabula - Botlokwa
TTITLE12=Julian Bahula - Heita Cindi
EXTD=
EXTT0=
EXTT1=
EXTT2=
EXTT3=
EXTT4=
EXTT5=
EXTT6=
EXTT7=
EXTT8=
EXTT9=
EXTT10=
EXTT11=
EXTT12=
PLAYORDER=
